Coordinates
version=1
nRows=10
nColumns=40
inDegrees=yes

Units are S.I. units (second, meters, Newtons, ...)
If the header above contains a line with 'inDegrees', this indicates whether rotational values are in degrees (yes) or radians (no).

endheader
time	pelvis_tilt	pelvis_list	pelvis_rotation	pelvis_tx	pelvis_ty	pelvis_tz	hip_flexion_r	hip_adduction_r	hip_rotation_r	knee_angle_r	knee_angle_r_beta	ankle_angle_r	subtalar_angle_r	mtp_angle_r	hip_flexion_l	hip_adduction_l	hip_rotation_l	knee_angle_l	knee_angle_l_beta	ankle_angle_l	subtalar_angle_l	mtp_angle_l	lumbar_extension	lumbar_bending	lumbar_rotation	arm_flex_r	arm_add_r	arm_rot_r	elbow_flex_r	pro_sup_r	wrist_flex_r	wrist_dev_r	arm_flex_l	arm_add_l	arm_rot_l	elbow_flex_l	pro_sup_l	wrist_flex_l	wrist_dev_l
      0.31000000	      0.61617102	     -6.16495392	      1.22899906	     -0.16239233	      0.93211648	      0.23311367	      6.95352708	      7.25376176	    -11.32707147	     13.15883417	      0.22966498	     -0.54897019	     -8.66053601	      0.00000000	     19.22137395	    -19.19847774	     -9.01088505	     75.59400025	      1.31936420	     -8.25585830	    -12.93193760	      0.00000000	     -1.02367118	      8.18534088	     -4.17836504	     43.87778822	    -16.10240399	     43.87778822	     75.43611200	     44.92775203	      0.00000000	      0.00000000	     43.87778822	    -16.10240399	     43.87778822	     75.43611200	     44.92775203	      0.00000000	      0.00000000
      0.31500000	      0.54859817	     -6.10071895	      1.05050830	     -0.15623287	      0.93271088	      0.23352553	      6.44623443	      7.22993484	    -11.43962434	     12.94944116	      0.22601038	     -0.36473778	     -8.51617645	      0.00000000	     20.14767017	    -19.15869703	     -9.25080538	     75.30276077	      1.31428111	     -8.06869849	    -12.92256110	      0.00000000	     -1.12857676	      8.06912427	     -4.10760850	     43.87792167	    -16.10218743	     43.87792167	     75.43594435	     44.92782906	      0.00000000	      0.00000000	     43.87792167	    -16.10218743	     43.87792167	     75.43594435	     44.92782906	      0.00000000	      0.00000000
      0.32000000	      0.65913593	     -5.84485109	      0.92252807	     -0.14958130	      0.93376927	      0.23360775	      5.50282668	      6.98728689	    -11.48785695	     12.29161956	      0.21452923	     -0.20772971	     -7.29195631	      0.00000000	     20.66878799	    -18.79285712	     -9.49892536	     74.83463332	      1.30611075	     -6.92340443	    -12.35827434	      0.00000000	     -1.09853799	      7.79079683	     -3.95667346	     43.87948594	    -16.09964853	     43.87948594	     75.43397950	     44.92872909	      0.00000000	      0.00000000	     43.87948594	    -16.09964853	     43.87948594	     75.43397950	     44.92872909	      0.00000000	      0.00000000
      0.32500000	      0.58043378	     -5.79959804	      0.74826158	     -0.14350457	      0.93419010	      0.23395411	      5.02709794	      6.97314257	    -11.63232937	     12.09916134	      0.21117020	     -0.00028351	     -7.13459556	      0.00000000	     21.57415709	    -18.74700365	     -9.73750547	     74.42701339	      1.29899644	     -6.73827691	    -12.30475749	      0.00000000	     -1.21433459	      7.67045201	     -3.88918462	     43.87963155	    -16.09941246	     43.87963155	     75.43379717	     44.92881215	      0.00000000	      0.00000000	     43.87963155	    -16.09941246	     43.87963155	     75.43379717	     44.92881215	      0.00000000	      0.00000000
      0.33000000	      1.29540403	     -4.34987081	      0.24914004	     -0.13681401	      0.93691198	      0.23498935	      3.69488983	      5.29982367	    -12.02380493	     12.12198901	      0.21156862	      0.68654267	     -4.77299643	      0.00000000	     20.66604232	    -17.07365113	    -10.83554318	     72.96671777	      1.27350947	     -5.79295997	    -11.60095421	      0.00000000	     -2.07985424	      5.90337943	     -3.03545678	     43.88993705	    -16.08273647	     43.88993705	     75.42098656	     44.93452488	      0.00000000	      0.00000000	     43.88993705	    -16.08273647	     43.88993705	     75.42098656	     44.93452488	      0.00000000	      0.00000000
      0.33500000	      1.39557019	     -4.06661373	      0.03926035	     -0.13051252	      0.93771168	      0.23536259	      2.94861668	      5.01022217	    -12.10007521	     11.78383727	      0.20566676	      0.87386046	     -4.09135899	      0.00000000	     21.11873521	    -16.74865116	    -11.23438863	     72.19846609	      1.26010095	     -5.16513459	    -11.07895184	      0.00000000	     -2.24235907	      5.56621919	     -2.74671552	     43.89443088	    -16.07549989	     43.89443088	     75.41549254	     44.93687139	      0.00000000	      0.00000000	     43.89443088	    -16.07549989	     43.89443088	     75.41549254	     44.93687139	      0.00000000	      0.00000000
      0.34000000	      1.30398004	     -4.08000275	     -0.07538684	     -0.12443848	      0.93784197	      0.23548219	      2.50247879	      5.03565679	    -12.24346042	     11.61167788	      0.20266201	      1.08292287	     -3.95791366	      0.00000000	     22.01534617	    -16.78268919	    -11.51606396	     71.66200563	      1.25073795	     -5.00479146	    -11.05670167	      0.00000000	     -2.33284061	      5.52098471	     -2.71793908	     43.89456454	    -16.07528510	     43.89456454	     75.41533016	     44.93693983	      0.00000000	      0.00000000	     43.89456454	    -16.07528510	     43.89456454	     75.41533016	     44.93693983	      0.00000000	      0.00000000
      0.34500000	      1.71695596	     -3.34451863	     -0.45872447	     -0.11780012	      0.93939432	      0.23630452	      1.40986215	      4.20998182	    -12.37526028	     11.30863550	      0.19737292	      1.42583965	     -2.47471043	      0.00000000	     21.66925472	    -15.95239744	    -12.25899182	     70.28513698	      1.22670706	     -4.04012792	    -10.04797047	      0.00000000	     -2.70944613	      4.59491594	     -2.25152682	     43.90008161	    -16.06642581	     43.90008161	     75.40865018	     44.93972268	      0.00000000	      0.00000000	     43.90008161	    -16.06642581	     43.90008161	     75.40865018	     44.93972268	      0.00000000	      0.00000000
      0.35000000	      1.61732092	     -3.33356855	     -0.60398467	     -0.11155704	      0.93945946	      0.23643568	      0.91062319	      4.21244752	    -12.44003633	     10.99906536	      0.19196991	      1.60947753	     -2.04933982	      0.00000000	     22.41508857	    -15.93652919	    -12.58678100	     69.47889878	      1.21263554	     -3.83161077	     -9.96899754	      0.00000000	     -2.56641383	      4.58626708	     -2.23734312	     43.90059706	    -16.06559990	     43.90059706	     75.40803059	     44.93997619	      0.00000000	      0.00000000	     43.90059706	    -16.06559990	     43.90059706	     75.40803059	     44.93997619	      0.00000000	      0.00000000
      0.35500000	      1.61473453	     -3.26279892	     -0.71381828	     -0.10527746	      0.93966610	      0.23654005	      0.28907110	      4.14423383	    -12.51397568	     10.66133841	      0.18607546	      1.74781165	     -1.44056629	      0.00000000	     22.99288992	    -15.82795691	    -12.87963652	     68.53845683	      1.19622174	     -3.45019342	     -9.63244435	      0.00000000	     -2.56692421	      4.47023190	     -2.17737085	     43.90135744	    -16.06438187	     43.90135744	     75.40711754	     44.94034867	      0.00000000	      0.00000000	     43.90135744	    -16.06438187	     43.90135744	     75.40711754	     44.94034867	      0.00000000	      0.00000000
